<?xml version="1.0" standalone="no"?>
<!DOCTYPE svg PUBLIC "-//W3C//DTD SVG 20010904//EN"
 "http://www.w3.org/TR/2001/REC-SVG-20010904/DTD/svg10.dtd">
<svg version="1.0" xmlns="http://www.w3.org/2000/svg"
 width="370.000000pt" height="370.000000pt" viewBox="0 0 370.000000 370.000000"
 preserveAspectRatio="xMidYMid meet">
<metadata>
Created by potrace 1.14, written by Peter Selinger 2001-2017
</metadata>
<g transform="translate(0.000000,370.000000) scale(0.100000,-0.100000)"
fill="#000000" stroke="none">
<path d="M1850 2988 c-30 -11 -70 -32 -88 -45 -33 -25 -33 -27 -26 -77 15
-108 -7 -259 -49 -340 -20 -38 -14 -50 52 -102 l56 -44 8 33 c20 75 109 128
185 108 43 -12 95 -62 109 -106 10 -31 10 -40 -2 -94 -6 -30 -5 -31 27 -31 24
0 53 15 110 56 99 71 120 71 129 -4 8 -58 26 -86 67 -100 43 -15 74 -5 111 34
29 32 33 41 28 76 -3 22 -15 50 -26 62 -50 53 -17 80 101 85 22 1 26 26 13 86
-32 139 -139 228 -280 232 -68 1 -71 2 -92 36 -21 34 -84 88 -132 115 -80 46
-211 54 -301 20z"/>
<path d="M1391 2954 c-65 -23 -114 -57 -156 -108 -36 -44 -75 -129 -75 -164 0
-12 -13 -23 -36 -31 -48 -17 -107 -72 -134 -123 -43 -83 -28 -228 27 -259 42
-23 156 -29 259 -14 l51 7 13 -45 c15 -54 36 -76 84 -87 26 -6 44 -3 68 9 64
31 75 102 28 165 -30 39 -29 63 3 83 26 16 87 101 113 157 42 91 53 151 51
259 -2 94 -3 100 -29 122 -50 43 -184 58 -267 29z"/>
<path d="M1899 2463 c-36 -22 -51 -50 -51 -94 1 -29 -4 -40 -18 -44 -29 -9
-81 20 -135 74 l-49 49 -42 -47 c-24 -25 -43 -51 -44 -58 0 -6 9 -27 20 -46
38 -64 3 -169 -67 -202 -35 -17 -90 -19 -126 -6 -34 13 -85 67 -89 94 -2 15
-9 21 -23 20 -61 -8 -142 -9 -174 -3 -20 4 -42 5 -49 2 -18 -6 -15 -54 7 -106
42 -98 153 -166 270 -166 53 0 61 -3 82 -30 36 -46 118 -99 185 -119 78 -23
197 -21 249 5 34 17 40 27 65 101 34 103 102 239 143 290 61 73 60 69 22 69
-55 0 -63 16 -36 70 21 41 22 51 12 85 -19 64 -97 95 -152 62z"/>
<path d="M2628 2452 c-43 -4 -44 -6 -22 -57 26 -62 0 -145 -55 -178 -100 -59
-226 0 -240 113 -3 29 -127 -72 -200 -163 -97 -123 -183 -313 -174 -385 17
-127 186 -288 381 -362 41 -16 48 -10 21 21 -58 65 -96 194 -80 272 6 28 11
31 67 43 103 21 174 62 221 129 28 40 51 121 48 169 -1 30 2 40 17 44 10 2 18
7 18 11 0 4 13 14 29 24 70 41 101 177 62 264 -22 48 -42 60 -93 55z"/>
<path d="M320 1219 c-73 -15 -106 -101 -63 -167 13 -21 13 -26 -1 -47 -15 -22
-21 -57 -17 -96 1 -20 29 -52 58 -67 13 -7 71 -12 147 -12 l126 0 0 40 0 40
-106 0 c-106 0 -144 9 -144 35 0 36 29 45 141 45 l109 0 0 38 0 39 -111 -1
c-91 -1 -113 2 -126 16 -11 13 -12 21 -3 37 12 24 5 23 138 22 l102 -1 0 44 0
43 -108 0 c-59 -1 -123 -4 -142 -8z"/>
<path d="M591 1201 c34 -107 130 -346 145 -361 18 -19 105 -20 127 -2 20 17
160 368 152 381 -3 6 -22 9 -43 8 l-37 -2 -61 -155 c-34 -85 -66 -156 -72
-158 -5 -1 -21 28 -36 65 -14 37 -41 108 -59 158 l-34 90 -46 1 c-44 1 -44 0
-36 -25z"/>
<path d="M1113 1214 c-21 -7 -50 -27 -65 -45 -47 -56 -56 -176 -18 -254 33
-68 82 -88 200 -83 99 3 129 18 165 79 16 27 20 52 20 114 -1 142 -55 198
-196 200 -37 1 -85 -4 -106 -11z m200 -107 c15 -20 21 -41 20 -80 -1 -94 -28
-117 -132 -117 -89 0 -119 38 -109 141 6 60 23 80 75 88 68 11 124 -1 146 -32z"/>
<path d="M1457 1217 c-2 -7 -3 -75 -2 -152 2 -159 11 -190 65 -218 28 -14 56
-17 140 -15 l104 3 1 35 0 35 -103 5 c-110 5 -121 11 -122 60 -1 14 -2 77 -3
140 l-2 115 -37 2 c-21 1 -38 -3 -41 -10z"/>
<path d="M1783 1222 c-16 -11 -10 -301 7 -335 21 -44 58 -57 155 -57 157 0
172 19 174 241 l1 156 -40 0 c-22 0 -40 -3 -41 -6 0 -3 -1 -67 -2 -142 -2
-163 -5 -169 -86 -169 -90 0 -91 2 -94 170 l-2 145 -31 2 c-17 0 -35 -2 -41
-5z"/>
<path d="M2145 1222 c-3 -3 -5 -22 -5 -43 0 -37 1 -37 38 -37 79 0 72 15 72
-156 l0 -154 30 -4 c52 -8 55 -1 56 159 1 81 2 150 3 153 0 3 25 4 55 3 l54
-3 -2 43 -1 42 -147 1 c-81 1 -150 -1 -153 -4z"/>
<path d="M2470 1028 l0 -199 42 3 42 3 1 188 c0 104 -2 192 -5 196 -3 4 -22 7
-42 7 l-38 0 0 -198z"/>
<path d="M2721 1219 c-43 -9 -81 -38 -106 -80 -27 -46 -28 -169 -1 -222 32
-64 67 -81 172 -85 78 -3 97 -1 133 18 118 59 116 295 -2 356 -33 18 -142 25
-196 13z m160 -90 c65 -34 48 -199 -22 -214 -46 -10 -130 -2 -149 14 -59 52
-38 195 30 211 33 8 119 1 141 -11z"/>
<path d="M3073 1206 l-27 -24 -1 -176 -1 -176 44 0 43 0 -2 78 c-3 182 1 242
14 242 7 0 21 -19 32 -42 83 -192 125 -268 152 -279 37 -14 92 -5 117 21 20
19 21 32 21 198 l0 177 -38 2 c-46 1 -47 0 -44 -175 1 -74 0 -138 -3 -142 -12
-19 -31 11 -94 149 -36 79 -73 149 -83 157 -30 22 -98 17 -130 -10z"/>
<path d="M2770 754 c0 -4 10 -18 22 -31 l21 -23 -21 -23 c-30 -32 -28 -37 16
-37 29 0 45 7 67 30 l29 30 -27 28 c-19 20 -38 29 -67 30 -22 2 -40 0 -40 -4z"/>
<path d="M2910 753 c0 -4 10 -17 22 -30 l21 -23 -21 -23 c-30 -31 -28 -35 17
-35 30 -1 45 6 67 29 l28 29 -28 29 c-21 22 -37 29 -67 29 -21 1 -39 -2 -39
-5z"/>
<path d="M3061 751 c-10 -7 -8 -12 9 -24 16 -11 20 -21 15 -36 -3 -12 -10 -21
-15 -21 -4 0 -10 -7 -14 -15 -9 -26 68 -16 98 12 32 30 32 33 -2 66 -28 27
-65 34 -91 18z"/>
<path d="M3201 753 c-9 -4 -5 -12 15 -30 16 -14 24 -27 19 -31 -6 -4 -19 -17
-29 -29 l-19 -23 41 0 c31 0 48 7 71 28 l31 28 -28 30 c-26 29 -68 40 -101 27z"/>
<path d="M3340 748 c0 -4 9 -17 21 -29 l21 -21 -21 -22 c-29 -31 -27 -36 15
-36 26 0 43 8 66 30 l30 31 -30 29 c-24 22 -40 29 -67 28 -19 -1 -35 -5 -35
-10z"/>
<path d="M1810 696 c0 -25 5 -46 10 -46 6 0 10 18 10 39 0 22 -4 43 -10 46 -6
4 -10 -12 -10 -39z"/>
<path d="M1880 726 c0 -9 -6 -13 -15 -10 -9 4 -16 -3 -21 -21 -8 -31 6 -48 32
-43 14 2 19 13 21 41 0 20 -3 40 -8 43 -5 3 -9 -2 -9 -10z m4 -34 c2 -4 0 -14
-5 -22 -8 -13 -10 -13 -18 0 -10 15 -6 30 9 30 5 0 11 -4 14 -8z"/>
<path d="M2330 694 c0 -35 3 -45 10 -34 5 8 7 28 4 45 -8 47 -14 42 -14 -11z"/>
<path d="M2360 695 c0 -25 4 -45 8 -45 4 0 8 20 7 45 0 25 -3 45 -7 45 -5 0
-8 -20 -8 -45z"/>
<path d="M2700 708 c0 -36 10 -32 14 6 2 14 -1 26 -5 26 -5 0 -9 -14 -9 -32z"/>
<path d="M2535 719 c-7 -20 0 -62 11 -66 5 -2 9 13 8 33 -2 39 -11 54 -19 33z"/>
<path d="M1780 709 c0 -5 5 -7 10 -4 6 3 10 8 10 11 0 2 -4 4 -10 4 -5 0 -10
-5 -10 -11z"/>
<path d="M1922 708 c-7 -7 -12 -20 -12 -29 0 -22 38 -35 54 -19 8 10 7 12 -6
7 -10 -3 -20 -2 -23 3 -4 6 3 10 14 10 12 0 21 4 21 8 0 9 -21 32 -30 32 -3 0
-11 -5 -18 -12z m25 -14 c-3 -3 -12 -4 -19 -1 -8 3 -5 6 6 6 11 1 17 -2 13 -5z"/>
<path d="M1990 709 c-13 -9 -12 -10 2 -5 10 3 20 1 23 -4 4 -6 -3 -10 -14 -10
-15 0 -21 -6 -21 -21 0 -15 5 -20 23 -17 26 4 38 26 25 51 -10 20 -17 21 -38
6z m30 -33 c0 -11 -19 -15 -25 -6 -3 5 1 10 9 10 9 0 16 -2 16 -4z"/>
<path d="M2051 707 c-9 -9 -6 -16 11 -30 l23 -18 -24 6 c-16 5 -21 4 -17 -4 8
-12 39 -15 49 -5 10 10 -4 34 -22 35 -13 0 -12 2 3 8 16 6 17 8 4 13 -9 4 -21
1 -27 -5z"/>
<path d="M2148 713 c-10 -3 -18 -8 -18 -13 0 -12 26 -31 33 -23 4 3 7 1 7 -6
0 -8 -8 -10 -22 -6 -18 6 -20 4 -12 -5 14 -15 46 -10 52 8 2 8 -6 16 -19 19
-21 6 -21 7 -4 13 22 8 8 18 -17 13z"/>
<path d="M2230 686 c0 -20 4 -35 9 -32 4 3 7 17 5 32 -4 41 -14 41 -14 0z"/>
<path d="M2250 711 c0 -5 5 -13 10 -16 6 -4 8 -10 6 -14 -3 -4 0 -13 5 -21 7
-11 9 -6 7 19 -2 19 -9 36 -15 39 -7 2 -13 -1 -13 -7z"/>
<path d="M2390 681 c0 -29 13 -37 16 -10 1 5 2 14 3 19 2 22 21 9 21 -15 0
-14 5 -25 10 -25 6 0 10 6 9 13 -3 23 1 37 11 37 6 0 10 -11 10 -25 0 -14 5
-25 10 -25 14 0 13 47 -2 56 -6 4 -29 8 -50 8 -37 1 -38 0 -38 -33z"/>
<path d="M2507 713 c-9 -9 -9 -63 1 -63 4 0 8 16 9 35 2 36 1 39 -10 28z"/>
<path d="M2582 711 c-22 -13 -11 -56 16 -59 12 -2 22 1 22 7 0 6 -6 8 -14 5
-8 -3 -17 -1 -21 5 -4 7 4 11 19 11 28 0 33 9 14 28 -14 14 -19 15 -36 3z m23
-11 c3 -5 1 -10 -4 -10 -6 0 -11 5 -11 10 0 6 2 10 4 10 3 0 8 -4 11 -10z"/>
<path d="M2646 711 c-18 -7 -18 -9 5 -30 l24 -23 -24 7 c-16 5 -21 4 -17 -4
11 -16 43 -13 50 5 4 11 -1 18 -16 22 -20 5 -20 6 -3 12 10 4 14 9 9 12 -5 3
-18 2 -28 -1z"/>
<path d="M2196 683 c7 -39 14 -42 14 -5 0 18 -4 32 -9 32 -5 0 -7 -12 -5 -27z"/>
<path d="M1778 662 c-2 -17 -1 -32 3 -32 12 0 17 24 9 45 -6 17 -8 15 -12 -13z"/>
<path d="M2700 659 c0 -5 5 -7 10 -4 6 3 10 8 10 11 0 2 -4 4 -10 4 -5 0 -10
-5 -10 -11z"/>
</g>
</svg>
